<?xml version="1.0" encoding="utf-8"?>
<!-- Generator: Adobe Illustrator 26.0.3, SVG Export Plug-In . SVG Version: 6.00 Build 0)  -->
<svg version="1.0" id="katman_1" xmlns="http://www.w3.org/2000/svg" xmlns:xlink="http://www.w3.org/1999/xlink" x="0px" y="0px"
	 viewBox="0 0 600 450" style="enable-background:new 0 0 600 450;" xml:space="preserve">
<style type="text/css">
	.st0{fill:white;}
</style>
<symbol id="plyr-volume" viewBox="-9 -7 18 14">
	<path class="st0" d="M6.6-5.7c-0.4-0.4-1-0.4-1.4,0s-0.4,1,0,1.4C6.4-3.1,7-1.6,7,0S6.4,3.1,5.2,4.3c-0.4,0.4-0.4,1,0,1.4
		C5.4,5.9,5.7,6,5.9,6c0.3,0,0.5-0.1,0.7-0.3C8.1,4.2,9,2.2,9,0S8.1-4.2,6.6-5.7z"/>
	<path class="st0" d="M2.3-3.7c-0.4,0.3-0.4,0.9,0,1.3c0,0,0,0,0,0c0.7,0.7,1,1.5,1,2.4c0,0.9-0.4,1.9-1,2.5c-0.4,0.3-0.4,0.9,0,1.3
		c0,0,0,0,0,0c0.1,0.1,0.6,0.3,1,0.2c0.1,0,0.2-0.1,0.3-0.2C4.8,2.7,5.1,1.2,5.1,0c0-0.2,0-0.3,0-0.5c-0.1-1-0.3-2-1.5-3.2
		C3.3-4.1,2.7-4.1,2.3-3.7C2.3-3.7,2.3-3.7,2.3-3.7L2.3-3.7z M-5.2-3h-3.1C-8.7-3-9-2.7-9-2.2v4.5C-9,2.7-8.7,3-8.3,3h3.1l4.1,3.9
		C-0.6,7.2,0,6.9,0,6.3V-6.2c0-0.6-0.6-1-1.1-0.6L-5.2-3z"/>
</symbol>
<use xlink:href="#plyr-volume"  width="18" height="14" x="-9" y="-7" transform="matrix(19.8259 0 0 19.8259 300 225)" style="overflow:visible;"/>
</svg>
